<svg width="96.119629" height="16.092773" viewBox="0 0 96.1196 16.0928" fill="none" xmlns="http://www.w3.org/2000/svg" xmlns:xlink="http://www.w3.org/1999/xlink">
	<desc>
			Created with Pixso.
	</desc>
	<defs/>
	<path id="Интерьер." d="M2.3 0L0 0L0 12.59L2.17 12.59L8.94 3.66L8.94 12.59L11.24 12.59L11.24 0L9.07 0L2.3 8.94L2.3 0ZM44.69 8.51Q44.72 8.08 44.72 7.84Q44.72 6.37 44.1 5.24Q43.76 4.63 43.29 4.17Q42.88 3.78 42.37 3.5Q42.25 3.43 42.12 3.36Q41.11 2.87 39.86 2.87Q38.68 2.87 37.69 3.31Q37.5 3.4 37.3 3.51Q36.73 3.83 36.28 4.27Q35.85 4.71 35.53 5.26Q35.41 5.48 35.31 5.71Q34.9 6.66 34.9 7.79Q34.9 8.96 35.34 9.92Q35.43 10.13 35.55 10.34Q35.79 10.74 36.1 11.08Q36.64 11.69 37.41 12.09Q38.62 12.72 40.21 12.72Q41.45 12.72 42.44 12.33Q43.16 12.03 43.7 11.54Q43.9 11.36 44.08 11.15L42.87 9.77Q42.5 10.15 42.05 10.39Q41.27 10.81 40.26 10.81Q39.13 10.81 38.33 10.3Q38.25 10.25 38.18 10.19Q37.82 9.93 37.58 9.58Q37.26 9.12 37.15 8.51L44.69 8.51ZM54.8 3.37Q53.78 2.87 52.51 2.87Q51.53 2.87 50.7 3.22Q50.27 3.4 49.91 3.67Q49.59 3.92 49.33 4.24L49.33 2.98L47.19 2.98L47.19 16.09L49.44 16.09L49.44 11.43Q49.81 11.85 50.27 12.13Q51.21 12.72 52.51 12.72Q53.79 12.72 54.82 12.22Q54.93 12.17 55.03 12.11Q55.52 11.84 55.92 11.47Q56.41 11 56.76 10.37Q56.79 10.33 56.81 10.28Q57.39 9.19 57.39 7.79Q57.39 6.38 56.81 5.29Q56.79 5.25 56.76 5.22Q56.42 4.61 55.94 4.15Q55.53 3.77 55.03 3.49Q54.92 3.43 54.8 3.37ZM79.19 8.51Q79.23 8.08 79.23 7.84Q79.23 6.37 78.6 5.24Q78.27 4.63 77.79 4.17Q77.39 3.78 76.88 3.5Q76.75 3.43 76.62 3.36Q75.61 2.87 74.37 2.87Q73.19 2.87 72.2 3.31Q72 3.4 71.81 3.51Q71.23 3.83 70.79 4.27Q70.35 4.71 70.04 5.26Q69.91 5.48 69.81 5.71Q69.4 6.66 69.4 7.79Q69.4 8.96 69.84 9.92Q69.94 10.13 70.06 10.34Q70.29 10.74 70.6 11.08Q71.15 11.69 71.92 12.09Q73.13 12.72 74.71 12.72Q75.95 12.72 76.94 12.33Q77.66 12.03 78.21 11.54Q78.41 11.36 78.58 11.15L77.37 9.77Q77 10.15 76.56 10.39Q75.77 10.81 74.76 10.81Q73.63 10.81 72.84 10.3Q72.76 10.25 72.69 10.19Q72.33 9.93 72.09 9.58Q71.77 9.12 71.65 8.51L79.19 8.51ZM89.31 3.37Q88.28 2.87 87.02 2.87Q86.03 2.87 85.21 3.22Q84.78 3.4 84.42 3.67Q84.1 3.92 83.83 4.24L83.83 2.98L81.69 2.98L81.69 16.09L83.94 16.09L83.94 11.43Q84.32 11.85 84.77 12.13Q85.71 12.72 87.02 12.72Q88.3 12.72 89.33 12.22Q89.43 12.17 89.53 12.11Q90.03 11.84 90.42 11.47Q90.92 11 91.27 10.37Q91.29 10.33 91.32 10.28Q91.9 9.19 91.9 7.79Q91.9 6.38 91.31 5.29Q91.29 5.25 91.27 5.22Q90.93 4.61 90.45 4.15Q90.04 3.77 89.53 3.49Q89.42 3.43 89.31 3.37ZM16.77 2.98L14.52 2.98L14.52 12.59L16.77 12.59L16.77 8.8L21.61 8.8L21.61 12.59L23.86 12.59L23.86 2.98L21.61 2.98L21.61 6.89L16.77 6.89L16.77 2.98ZM31.13 4.89L34.5 4.89L34.5 2.98L25.5 2.98L25.5 4.89L28.88 4.89L28.88 12.59L31.13 12.59L31.13 4.89ZM67.27 6.98Q66.29 6.15 64.45 6.15L61.88 6.13L61.88 2.98L59.63 2.98L59.63 12.59L64.13 12.61Q66.09 12.63 67.17 11.77Q67.52 11.49 67.76 11.13Q68.25 10.39 68.25 9.32Q68.25 8.22 67.73 7.48Q67.53 7.2 67.27 6.98ZM38.53 4.98Q39.12 4.68 39.86 4.68Q40.65 4.68 41.25 5.01Q41.49 5.14 41.7 5.33Q41.96 5.56 42.15 5.84Q42.49 6.35 42.58 7.01L37.13 7.01Q37.24 6.3 37.61 5.78Q37.79 5.52 38.03 5.32Q38.27 5.12 38.53 4.98ZM73.04 4.98Q73.62 4.68 74.37 4.68Q75.15 4.68 75.76 5.01Q76 5.14 76.21 5.33Q76.47 5.56 76.66 5.84Q77 6.35 77.09 7.01L71.63 7.01Q71.74 6.3 72.12 5.78Q72.3 5.52 72.54 5.32Q72.77 5.12 73.04 4.98ZM53.65 10.47Q53.04 10.79 52.26 10.79Q51.62 10.79 51.08 10.56Q50.94 10.5 50.81 10.42Q50.58 10.3 50.39 10.13Q50.03 9.82 49.78 9.37Q49.4 8.69 49.4 7.79Q49.4 6.89 49.78 6.2Q50.04 5.74 50.41 5.43Q50.59 5.27 50.81 5.15Q50.94 5.07 51.08 5.01Q51.62 4.78 52.26 4.78Q53.04 4.78 53.64 5.1Q54.01 5.3 54.31 5.61Q54.49 5.8 54.63 6.01Q55.11 6.74 55.11 7.79Q55.11 8.84 54.62 9.57Q54.49 9.78 54.31 9.97Q54.01 10.27 53.65 10.47ZM88.16 10.47Q87.55 10.79 86.77 10.79Q86.13 10.79 85.59 10.56Q85.45 10.5 85.31 10.42Q85.09 10.3 84.9 10.13Q84.54 9.82 84.29 9.37Q83.91 8.69 83.91 7.79Q83.91 6.89 84.29 6.2Q84.54 5.74 84.92 5.43Q85.1 5.27 85.31 5.15Q85.45 5.07 85.59 5.01Q86.13 4.78 86.77 4.78Q87.54 4.78 88.15 5.1Q88.51 5.3 88.81 5.61Q89 5.8 89.14 6.01Q89.61 6.74 89.61 7.79Q89.61 8.84 89.13 9.57Q88.99 9.78 88.81 9.97Q88.52 10.27 88.16 10.47ZM65.44 10.54Q64.92 10.97 63.93 10.96L61.88 10.94L61.88 7.68L63.93 7.7Q64.95 7.72 65.46 8.09Q65.56 8.17 65.65 8.27Q65.96 8.64 65.96 9.28Q65.96 9.92 65.66 10.32Q65.56 10.44 65.44 10.54ZM94.03 12.6Q94.31 12.72 94.64 12.72Q94.96 12.72 95.23 12.61Q95.47 12.5 95.68 12.3Q95.85 12.13 95.96 11.92Q96.11 11.61 96.11 11.23Q96.11 10.77 95.91 10.43Q95.82 10.27 95.69 10.15Q95.52 9.98 95.33 9.89Q95.02 9.73 94.64 9.73Q94.25 9.73 93.93 9.89Q93.74 9.99 93.58 10.15Q93.46 10.27 93.37 10.42Q93.16 10.76 93.16 11.23Q93.16 11.62 93.32 11.93Q93.42 12.13 93.59 12.3Q93.79 12.5 94.03 12.6Z" fill="#FFFFFF" fill-opacity="1.000000" fill-rule="evenodd"/>
</svg>
