<svg width="19.000000" height="19.000000" viewBox="0 0 19 19" fill="none" xmlns="http://www.w3.org/2000/svg" xmlns:xlink="http://www.w3.org/1999/xlink">
	<desc>
			Created with Pixso.
	</desc>
	<defs>
		<clipPath id="clip310_614">
			<rect id="gg:search" rx="0.000000" width="18.000000" height="18.000000" transform="translate(0.500000 0.500000)" fill="white" fill-opacity="0"/>
		</clipPath>
	</defs>
	<rect id="gg:search" rx="0.000000" width="18.000000" height="18.000000" transform="translate(0.500000 0.500000)" fill="#FFFFFF" fill-opacity="0"/>
	<g clip-path="url(#clip310_614)">
		<path id="Vector" d="M14.5 11.42C15.48 10.15 15.95 8.55 15.8 6.94C15.65 5.34 14.89 3.85 13.68 2.79C12.48 1.72 10.91 1.16 9.3 1.21C7.69 1.26 6.16 1.92 5.02 3.06C3.88 4.2 3.21 5.73 3.16 7.34C3.11 8.95 3.68 10.52 4.74 11.73C5.81 12.94 7.3 13.69 8.9 13.84C10.51 14 12.11 13.53 13.38 12.54L13.41 12.57L16.77 15.93C16.85 16.01 16.93 16.06 17.03 16.1C17.13 16.14 17.23 16.16 17.33 16.16C17.44 16.16 17.54 16.14 17.64 16.1C17.73 16.06 17.82 16.01 17.89 15.93C17.97 15.86 18.02 15.77 18.06 15.68C18.1 15.58 18.12 15.48 18.12 15.37C18.12 15.27 18.1 15.17 18.06 15.07C18.02 14.97 17.97 14.89 17.89 14.81L14.53 11.45C14.52 11.44 14.51 11.43 14.5 11.42ZM12.85 4.18C13.3 4.62 13.66 5.14 13.9 5.72C14.14 6.3 14.27 6.92 14.27 7.54C14.28 8.17 14.15 8.79 13.91 9.37C13.68 9.95 13.33 10.48 12.88 10.92C12.44 11.37 11.91 11.72 11.33 11.96C10.75 12.19 10.13 12.32 9.5 12.31C8.88 12.31 8.26 12.18 7.68 11.94C7.1 11.7 6.58 11.34 6.14 10.89C5.26 10 4.77 8.8 4.77 7.54C4.78 6.29 5.28 5.09 6.16 4.2C7.05 3.32 8.25 2.82 9.5 2.81C10.76 2.81 11.96 3.3 12.85 4.18Z" fill="#FFFFFF" fill-opacity="1.000000" fill-rule="evenodd"/>
		<path id="Vector" d="M16 8.15Q16.06 7.55 16 6.93Q15.94 6.3 15.77 5.72Q15.6 5.13 15.32 4.57Q15.03 4.02 14.66 3.53Q14.28 3.05 13.82 2.64Q13.35 2.23 12.82 1.92Q12.29 1.6 11.71 1.39Q11.12 1.18 10.52 1.08Q9.91 0.99 9.29 1.01Q8.67 1.03 8.07 1.16Q7.47 1.29 6.9 1.54Q6.33 1.79 5.82 2.13Q5.32 2.48 4.88 2.92Q4.43 3.36 4.09 3.86Q3.75 4.37 3.5 4.94Q3.25 5.51 3.12 6.11Q2.98 6.71 2.96 7.33Q2.94 7.96 3.04 8.56Q3.13 9.17 3.34 9.75Q3.56 10.34 3.87 10.87Q4.18 11.39 4.59 11.86Q5 12.33 5.49 12.7Q5.97 13.08 6.53 13.36Q7.08 13.64 7.67 13.81Q8.26 13.99 8.88 14.04Q9.5 14.1 10.11 14.04Q10.72 13.99 11.32 13.81Q11.92 13.64 12.47 13.36Q12.93 13.12 13.36 12.8L16.63 16.07Q16.7 16.14 16.78 16.2Q16.86 16.25 16.95 16.29Q17.04 16.33 17.14 16.35Q17.23 16.36 17.33 16.36Q17.43 16.36 17.53 16.35Q17.62 16.33 17.71 16.29Q17.8 16.25 17.88 16.2Q17.96 16.14 18.03 16.07Q18.1 16 18.16 15.92Q18.21 15.84 18.25 15.75Q18.29 15.66 18.31 15.57Q18.32 15.47 18.32 15.37Q18.32 15.27 18.31 15.18Q18.29 15.08 18.25 14.99Q18.21 14.9 18.16 14.82Q18.1 14.74 18.03 14.67L14.76 11.4Q15.08 10.97 15.32 10.51Q15.59 9.96 15.77 9.36Q15.94 8.76 16 8.15ZM14.5 11.42C15.48 10.15 15.95 8.55 15.8 6.94C15.65 5.34 14.89 3.85 13.68 2.79C12.48 1.72 10.91 1.16 9.3 1.21C7.69 1.26 6.16 1.92 5.02 3.06C3.88 4.2 3.21 5.73 3.16 7.34C3.11 8.95 3.68 10.52 4.74 11.73C5.81 12.94 7.3 13.69 8.9 13.84C10.51 14 12.11 13.53 13.38 12.54L13.41 12.57L16.77 15.93C16.85 16.01 16.93 16.06 17.03 16.1C17.13 16.14 17.23 16.16 17.33 16.16C17.44 16.16 17.54 16.14 17.64 16.1C17.73 16.06 17.82 16.01 17.89 15.93C17.97 15.86 18.02 15.77 18.06 15.68C18.1 15.58 18.12 15.48 18.12 15.37C18.12 15.27 18.1 15.17 18.06 15.07C18.02 14.97 17.97 14.89 17.89 14.81L14.53 11.45C14.52 11.44 14.51 11.43 14.5 11.42ZM12.85 4.18C13.3 4.62 13.66 5.14 13.9 5.72C14.14 6.3 14.27 6.92 14.27 7.54C14.28 8.17 14.15 8.79 13.91 9.37C13.68 9.95 13.33 10.48 12.88 10.92C12.44 11.37 11.91 11.72 11.33 11.96C10.75 12.19 10.13 12.32 9.5 12.31C8.88 12.31 8.26 12.18 7.68 11.94C7.1 11.7 6.58 11.34 6.14 10.89C5.26 10 4.77 8.8 4.77 7.54C4.78 6.29 5.28 5.09 6.16 4.2C7.05 3.32 8.25 2.82 9.5 2.81C10.76 2.81 11.96 3.3 12.85 4.18ZM13.29 5.01Q13.54 5.38 13.72 5.8Q13.89 6.22 13.98 6.65Q14.07 7.09 14.07 7.54Q14.07 8 13.99 8.44Q13.9 8.88 13.73 9.3Q13.56 9.72 13.31 10.09Q13.06 10.46 12.74 10.78Q12.42 11.1 12.05 11.35Q11.68 11.6 11.26 11.77Q10.83 11.94 10.4 12.03Q9.96 12.12 9.5 12.11Q9.05 12.11 8.61 12.02Q8.18 11.93 7.76 11.76Q7.34 11.58 6.97 11.33Q6.6 11.08 6.28 10.75Q5.96 10.43 5.72 10.06Q5.48 9.7 5.31 9.28Q5.14 8.86 5.06 8.43Q4.97 8 4.97 7.54Q4.97 7.09 5.06 6.66Q5.15 6.23 5.32 5.81Q5.5 5.4 5.74 5.03Q5.99 4.66 6.31 4.35Q6.62 4.03 6.99 3.78Q7.36 3.54 7.77 3.36Q8.19 3.19 8.62 3.1Q9.05 3.02 9.5 3.01Q9.95 3.01 10.39 3.1Q10.82 3.18 11.24 3.35Q11.66 3.52 12.02 3.76Q12.39 4 12.71 4.32Q13.04 4.64 13.29 5.01Z" fill="#FFFFFF" fill-opacity="1.000000" fill-rule="evenodd"/>
	</g>
</svg>
